<?xml version="1.0" encoding="utf-8"?>
<!-- Generator: Adobe Illustrator 26.5.0, SVG Export Plug-In . SVG Version: 6.00 Build 0)  -->
<svg version="1.1" id="Layer_1" xmlns="http://www.w3.org/2000/svg" xmlns:xlink="http://www.w3.org/1999/xlink" x="0px" y="0px"
	 viewBox="0 0 595.28 841.89" style="enable-background:new 0 0 595.28 841.89;" xml:space="preserve">
<style type="text/css">
	.st0{fill:#148F95;}
</style>
<path id="Path_2" class="st0" d="M377.64,243.05c-4.37-13.24-18.32-20.76-31.79-17.14l-91.58,22.93L134.68,145l-33.14,8.32
	L173.17,269l-85.91,21.43l-33.94-24.7l-25.05,6.3l44.71,72.59l286.06-71.58c13.34-3.04,21.7-16.31,18.66-29.66
	C377.69,243.27,377.66,243.16,377.64,243.05 M540.07,345.88l-26.94,50.41H378.45l-26.94-50.41l26.94-25.17h53.87V270.3h26.94v50.41
	h53.87L540.07,345.88 M567,597.92v50.41H28.28v-50.41h350.18V421.49h134.68v176.43H567z"/>
</svg>
