<svg xmlns="http://www.w3.org/2000/svg" xmlns:xlink="http://www.w3.org/1999/xlink" width="566" height="566" viewBox="0 0 566 566">
  <defs>
    <clipPath id="clip-Artboard_1">
      <rect width="566" height="566"/>
    </clipPath>
  </defs>
  <g id="Artboard_1" data-name="Artboard – 1" clip-path="url(#clip-Artboard_1)">
    <path id="Path_11" data-name="Path 11" d="M1129.354,386.392c1.351-19.669-9.742-53.962-44.715-48.787-26.1,7.49-188.881,49.963-198.613,59.993a27.566,27.566,0,0,0-7.711,19.484l4.979,329.826a27.581,27.581,0,0,0,8.376,19.19,27.172,27.172,0,0,0,19.391,7.7L1142,770.283a27.308,27.308,0,0,0,26.9-27.752L1163.827,412.7a27.271,27.271,0,0,0-27.669-26.886Zm-180.8,4.1,137.166-39.55c27.17-4.876,28.237,23.468,27.66,35.164Zm18.912,235.04h23.278a113.262,113.262,0,0,0,13.829,27.669,70.917,70.917,0,0,1-28.54-17.453,64.542,64.542,0,0,1-8.567-10.216Zm32.04,26.2Zm76.07-15.984a70.554,70.554,0,0,1-30.581,18.035,108.718,108.718,0,0,0,14.129-28.252h24.922a64.2,64.2,0,0,1-8.469,10.216Zm-63.117,19.391h0a102.469,102.469,0,0,1-16.185-29.608h26.9V656.41a76.163,76.163,0,0,1-10.717-1.268Zm-56.988-66.529H984.5a124.482,124.482,0,0,0,4.68,31.757h-24.84a69.681,69.681,0,0,1-8.876-31.757Zm73.06-42.272h0V515.558a86.02,86.02,0,0,1,8.675.876,104.149,104.149,0,0,1,16.453,29.906Zm26.787,5.165h0a119.709,119.709,0,0,1,4.953,31.844h-31.741V551.506Zm-32.143-5.165h-26.9a104.232,104.232,0,0,1,16.185-29.515,77.71,77.71,0,0,1,10.717-1.268Zm0,5.165h0V583.35H989.657a120.142,120.142,0,0,1,4.979-31.844ZM984.5,583.35H955.467a70.058,70.058,0,0,1,8.876-31.844h24.84a124.486,124.486,0,0,0-4.68,31.844Zm5.154,5.263h33.515V620.37H994.538a123.446,123.446,0,0,1-4.881-31.757Zm38.87,36.922h25.128a102.594,102.594,0,0,1-16.453,30c-2.83.376-5.768.691-8.675.876Zm0-5.165h0V588.613h31.741a118.926,118.926,0,0,1-4.953,31.757Zm36.921-31.757h30.783a69.973,69.973,0,0,1-9.165,32.051v-.294h-26.3a125.174,125.174,0,0,0,4.68-31.757Zm0-5.263h0a120.976,120.976,0,0,0-4.778-31.844h26.592a71.442,71.442,0,0,1,8.969,31.844Zm18.592-37.009h-24.922a112.251,112.251,0,0,0-14.129-28.154,70.489,70.489,0,0,1,30.581,17.922,76.624,76.624,0,0,1,8.469,10.232ZM976.028,536.109h0a69.619,69.619,0,0,1,28.54-17.231,106.452,106.452,0,0,0-13.736,27.463H967.549a77.492,77.492,0,0,1,8.479-10.232Z" transform="translate(-751.401 -287.585)" fill="#fff" fill-rule="evenodd"/>
  </g>
</svg>
