<svg xmlns="http://www.w3.org/2000/svg" xmlns:xlink="http://www.w3.org/1999/xlink" width="566" height="566" viewBox="0 0 566 566">
  <defs>
    <clipPath id="clip-Artboard_1">
      <rect width="566" height="566"/>
    </clipPath>
  </defs>
  <g id="Artboard_1" data-name="Artboard – 1" clip-path="url(#clip-Artboard_1)">
    <path id="spirit-airlines-logo" d="M843.171,692.08h19.045l-4.08,19.045H839.091l-6.3,29.564c-1.446,6.7,0,7.627,7.749,7.627,3.547,0,6.439-.137,10.245-.259l-3.806,17.872a175.06,175.06,0,0,1-22.211,1.309c-18.786,0-25.484-4.6-22.074-20.491l7.627-35.729h-15.1L799.16,692.1h15.1l4.993-23.383h28.772Zm-98.663,73.575H773.28l15.635-73.575H760.143Zm17.477-81.978h28.772l3.684-17.339H765.669Zm-78.051,8.4L668.3,765.655H696.28l15.634-73.575Zm66.618-3.151c-1.842-.137-3.684-.259-5.389-.259-12.879,0-33.37,12.62-38.759,35.212l-1.446,5.13h.533c4.08-9.728,14.325-14.98,28.118-14.98a52.9,52.9,0,0,1,11.3,1.309ZM643.211,692.08l-15.635,73.575h28.772l15.634-73.575Zm34.3-25.88H648.737l-3.684,17.339h28.772Zm-51.638,63.847c-4.46,21.282-23.916,38.5-50.983,38.5-12.742,0-21.678-4.2-25.362-9.591h-.259l-7.094,33.233H513.4l21.282-100.246h27.981l-2.1,9.728h.259c7.749-7.49,18.786-11.692,30.477-11.692,26.032.137,39.962,14.584,34.572,40.068Zm-45.716-19.836c-13.534,0-22.074,7.353-24.434,18.786-2.5,11.433,3.014,18.649,16.548,18.649,13.138,0,21.815-6.576,24.312-18.649C599.063,716.772,593.293,710.211,580.156,710.211Zm-88.814,10.245L467.03,717.7c-7.094-.792-8.677-2.892-8.144-5.13,1.05-4.993,6.3-6.957,14.721-6.957,3.684,0,7.353.4,9.987,1.7A5.533,5.533,0,0,1,487.4,713.5h32.319c2.892-20.887-21.145-24.434-40.723-24.434-27.585,0-45.99,6.3-50.192,26.276-2.634,12.483,4.6,18.527,21.024,20.491l25.088,3.151c6.957.792,9.591,1.964,8.677,5.785-1.187,5.252-8.144,6.577-14.584,6.577-6.3,0-9.987-.792-12.224-2.238s-2.893-3.547-2.755-6.3H420.385c-4.08,22.333,22.729,25.88,43.1,25.88,30.614,0,48.867-8.145,52.551-25.484,3.151-14.462-5.389-20.643-24.692-22.744Zm381-21.937,1.309,2.36h-1.583l-.913-1.964H870.1v1.964h-1.583v-6.044h2.5a2.619,2.619,0,0,1,1.7.533c.533.259.655.792.655,1.583a1.962,1.962,0,0,1-.259.913,1.313,1.313,0,0,1-.776.655Zm-.518-1.583a1.033,1.033,0,0,0-.259-.655,1.4,1.4,0,0,0-.792-.259h-.655v1.842h.655a1.175,1.175,0,0,0,.792-.259A1.077,1.077,0,0,0,871.822,696.936Zm4.856,1.051a4.474,4.474,0,0,1-.533,2.359,7.515,7.515,0,0,1-1.187,1.964,5.7,5.7,0,0,1-1.842,1.187,6.523,6.523,0,0,1-4.476,0,5.458,5.458,0,0,1-1.842-1.187,5.115,5.115,0,0,1-1.187-1.964,7.031,7.031,0,0,1-.533-2.359,5.341,5.341,0,0,1,.533-2.5,4.732,4.732,0,0,1,1.188-1.964,5.7,5.7,0,0,1,1.842-1.187,6.523,6.523,0,0,1,4.476,0,5.455,5.455,0,0,1,1.842,1.188,5.117,5.117,0,0,1,1.188,1.964A5.344,5.344,0,0,1,876.678,697.987Zm-1.446,0a5.317,5.317,0,0,0-.4-1.964,6.724,6.724,0,0,0-.913-1.583,2.7,2.7,0,0,0-1.446-.913,4.149,4.149,0,0,0-1.705-.4,4.72,4.72,0,0,0-1.842.4,5.569,5.569,0,0,0-1.446.913,4.386,4.386,0,0,0-.913,1.583,4.868,4.868,0,0,0-.4,1.964,5.321,5.321,0,0,0,.4,1.964,5.569,5.569,0,0,0,.913,1.446,3.874,3.874,0,0,0,1.446.913,4.3,4.3,0,0,0,1.842.4,3.658,3.658,0,0,0,1.705-.4,5.569,5.569,0,0,0,1.446-.913,5.191,5.191,0,0,0,.913-1.446A5.256,5.256,0,0,0,875.232,697.987Z" transform="translate(-364.402 -445.571)"/>
  </g>
</svg>
