<?xml version="1.0" encoding="UTF-8" standalone="no"?>
<svg
   xmlns:dc="http://purl.org/dc/elements/1.1/"
   xmlns:cc="http://creativecommons.org/ns#"
   xmlns:rdf="http://www.w3.org/1999/02/22-rdf-syntax-ns#"
   xmlns:svg="http://www.w3.org/2000/svg"
   xmlns="http://www.w3.org/2000/svg"
   xmlns:sodipodi="http://sodipodi.sourceforge.net/DTD/sodipodi-0.dtd"
   xmlns:inkscape="http://www.inkscape.org/namespaces/inkscape"
   id="Capa_1"
   data-name="Capa 1"
   viewBox="0 0 700 700"
   version="1.1"
   sodipodi:docname="avianca-logo.svg"
   width="700"
   height="700"
   inkscape:version="0.92.4 (5da689c313, 2019-01-14)"
   inkscape:export-filename="C:\Users\suitedoalex\sites\avianca-logo-0.png"
   inkscape:export-xdpi="561.73999"
   inkscape:export-ydpi="561.73999">
  <metadata
     id="metadata65">
    <rdf:RDF>
      <cc:Work
         rdf:about="">
        <dc:format>image/svg+xml</dc:format>
        <dc:type
           rdf:resource="http://purl.org/dc/dcmitype/StillImage" />
        <dc:title>avianca_airlines_logo_white</dc:title>
      </cc:Work>
    </rdf:RDF>
  </metadata>
  <sodipodi:namedview
     pagecolor="#ffffff"
     bordercolor="#666666"
     borderopacity="1"
     objecttolerance="10"
     gridtolerance="10"
     guidetolerance="10"
     inkscape:pageopacity="0"
     inkscape:pageshadow="2"
     inkscape:window-width="1600"
     inkscape:window-height="837"
     id="namedview63"
     showgrid="false"
     inkscape:zoom="0.63487544"
     inkscape:cx="261.94189"
     inkscape:cy="312.84052"
     inkscape:window-x="-8"
     inkscape:window-y="-8"
     inkscape:window-maximized="1"
     inkscape:current-layer="Capa_1" />
  <defs
     id="defs7">
    <style
       id="style2">.cls-1{fill:#fff;fill-rule:evenodd;}.cls-2{mask:url(#mask);}</style>
    <mask
       id="mask"
       x="0"
       y="7.62"
       width="186"
       height="25.17"
       maskUnits="userSpaceOnUse">
      <g
         id="mask-2">
        <polygon
           id="path-1"
           class="cls-1"
           points="186,7.62 0,7.62 0,32.79 186,32.79 "
           style="fill:#ffffff;fill-rule:evenodd" />
      </g>
    </mask>
    <mask
       id="mask-5"
       x="0"
       y="7.62"
       width="186"
       height="25.17"
       maskUnits="userSpaceOnUse">
      <g
         id="mask-2-6">
        <polygon
           id="path-1-4"
           class="cls-1"
           points="0,7.62 0,32.79 186,32.79 186,7.62 "
           style="fill:#ffffff;fill-rule:evenodd" />
      </g>
    </mask>
    <mask
       id="mask1018"
       x="0"
       y="7.62"
       width="186"
       height="25.17"
       maskUnits="userSpaceOnUse">
      <g
         id="g1016">
        <polygon
           id="polygon1014"
           class="cls-1"
           points="0,7.62 0,32.79 186,32.79 186,7.62 "
           style="fill:#ffffff;fill-rule:evenodd" />
      </g>
    </mask>
    <mask
       id="mask1024"
       x="0"
       y="7.62"
       width="186"
       height="25.17"
       maskUnits="userSpaceOnUse">
      <g
         id="g1022">
        <polygon
           id="polygon1020"
           class="cls-1"
           points="0,7.62 0,32.79 186,32.79 186,7.62 "
           style="fill:#ffffff;fill-rule:evenodd" />
      </g>
    </mask>
    <mask
       id="mask1030"
       x="0"
       y="7.62"
       width="186"
       height="25.17"
       maskUnits="userSpaceOnUse">
      <g
         id="g1028">
        <polygon
           id="polygon1026"
           class="cls-1"
           points="0,7.62 0,32.79 186,32.79 186,7.62 "
           style="fill:#ffffff;fill-rule:evenodd" />
      </g>
    </mask>
    <mask
       id="mask1036"
       x="0"
       y="7.62"
       width="186"
       height="25.17"
       maskUnits="userSpaceOnUse">
      <g
         id="g1034">
        <polygon
           id="polygon1032"
           class="cls-1"
           points="0,7.62 0,32.79 186,32.79 186,7.62 "
           style="fill:#ffffff;fill-rule:evenodd" />
      </g>
    </mask>
    <mask
       id="mask1042"
       x="0"
       y="7.62"
       width="186"
       height="25.17"
       maskUnits="userSpaceOnUse">
      <g
         id="g1040">
        <polygon
           id="polygon1038"
           class="cls-1"
           points="0,7.62 0,32.79 186,32.79 186,7.62 "
           style="fill:#ffffff;fill-rule:evenodd" />
      </g>
    </mask>
    <mask
       id="mask1048"
       x="0"
       y="7.62"
       width="186"
       height="25.17"
       maskUnits="userSpaceOnUse">
      <g
         id="g1046">
        <polygon
           id="polygon1044"
           class="cls-1"
           points="0,7.62 0,32.79 186,32.79 186,7.62 "
           style="fill:#ffffff;fill-rule:evenodd" />
      </g>
    </mask>
    <mask
       id="mask1054"
       x="0"
       y="7.62"
       width="186"
       height="25.17"
       maskUnits="userSpaceOnUse">
      <g
         id="g1052">
        <polygon
           id="polygon1050"
           class="cls-1"
           points="0,7.62 0,32.79 186,32.79 186,7.62 "
           style="fill:#ffffff;fill-rule:evenodd" />
      </g>
    </mask>
    <mask
       id="mask1060"
       x="0"
       y="7.62"
       width="186"
       height="25.17"
       maskUnits="userSpaceOnUse">
      <g
         id="g1058">
        <polygon
           id="polygon1056"
           class="cls-1"
           points="0,7.62 0,32.79 186,32.79 186,7.62 "
           style="fill:#ffffff;fill-rule:evenodd" />
      </g>
    </mask>
    <mask
       id="mask1066"
       x="0"
       y="7.62"
       width="186"
       height="25.17"
       maskUnits="userSpaceOnUse">
      <g
         id="g1064">
        <polygon
           id="polygon1062"
           class="cls-1"
           points="0,7.62 0,32.79 186,32.79 186,7.62 "
           style="fill:#ffffff;fill-rule:evenodd" />
      </g>
    </mask>
    <mask
       id="mask1072"
       x="0"
       y="7.62"
       width="186"
       height="25.17"
       maskUnits="userSpaceOnUse">
      <g
         id="g1070">
        <polygon
           id="polygon1068"
           class="cls-1"
           points="0,7.62 0,32.79 186,32.79 186,7.62 "
           style="fill:#ffffff;fill-rule:evenodd" />
      </g>
    </mask>
    <mask
       id="mask1078"
       x="0"
       y="7.62"
       width="186"
       height="25.17"
       maskUnits="userSpaceOnUse">
      <g
         id="g1076">
        <polygon
           id="polygon1074"
           class="cls-1"
           points="0,7.62 0,32.79 186,32.79 186,7.62 "
           style="fill:#ffffff;fill-rule:evenodd" />
      </g>
    </mask>
    <mask
       id="mask1084"
       x="0"
       y="7.62"
       width="186"
       height="25.17"
       maskUnits="userSpaceOnUse">
      <g
         id="g1082">
        <polygon
           id="polygon1080"
           class="cls-1"
           points="0,7.62 0,32.79 186,32.79 186,7.62 "
           style="fill:#ffffff;fill-rule:evenodd" />
      </g>
    </mask>
    <mask
       id="mask1090"
       x="0"
       y="7.62"
       width="186"
       height="25.17"
       maskUnits="userSpaceOnUse">
      <g
         id="g1088">
        <polygon
           id="polygon1086"
           class="cls-1"
           points="0,7.62 0,32.79 186,32.79 186,7.62 "
           style="fill:#ffffff;fill-rule:evenodd" />
      </g>
    </mask>
    <mask
       id="mask1096"
       x="0"
       y="7.62"
       width="186"
       height="25.17"
       maskUnits="userSpaceOnUse">
      <g
         id="g1094">
        <polygon
           id="polygon1092"
           class="cls-1"
           points="0,7.62 0,32.79 186,32.79 186,7.62 "
           style="fill:#ffffff;fill-rule:evenodd" />
      </g>
    </mask>
  </defs>
  <title
     id="title9">avianca_airlines_logo_white</title>
  <g
     id="TEMP_Logo"
     data-name="TEMP Logo"
     style="fill:#de0108;fill-opacity:1"
     transform="matrix(3.6923014,0,0,3.6923014,6.6159698,702.45933)"
     inkscape:export-filename="C:\Users\suitedoalex\sites\avianca-logo-4.png"
     inkscape:export-xdpi="55.914074"
     inkscape:export-ydpi="55.914074">
    <g
       id="Group-25"
       style="fill:#de0108;fill-opacity:1">
      <path
         id="Fill-1"
         class="cls-1"
         d="m 165.87,7.62 a 45.84,45.84 0 0 0 8.74,17.12 c 0,0 -7.55,-0.24 -10.19,-5.28 a 10.65,10.65 0 0 1 1.45,-11.84"
         style="fill:#de0108;fill-opacity:1;fill-rule:evenodd"
         inkscape:connector-curvature="0" />
      <path
         id="Fill-3"
         class="cls-1"
         d="m 177.08,27.31 a 24.73,24.73 0 0 0 8.92,5.43 c 0,0 -4.7,0.38 -7.54,-1 -2.84,-1.38 -5.79,-3.59 -7.61,-3.75 -1.82,-0.16 -2.9,-0.25 -3.38,-0.73 h 9.61"
         style="fill:#de0108;fill-opacity:1;fill-rule:evenodd"
         inkscape:connector-curvature="0" />
      <path
         id="Fill-5"
         class="cls-1"
         d="m 181.28,27.52 c -1.15,-2.69 -6.67,-2.78 -6.67,-2.78 0,0 1.5,1.63 2.47,2.57 a 21.56,21.56 0 0 1 4.2,0.21"
         style="fill:#de0108;fill-opacity:1;fill-rule:evenodd"
         inkscape:connector-curvature="0" />
      <path
         id="Fill-7"
         class="cls-1"
         d="m 13.71,15.56 h 3.37 l 3.06,7.89 2.95,-7.89 h 3.47 l -5.3,12.32 h -1.12 c -0.54,0 -1.3,-0.05 -2.08,-2.09 -0.78,-2.04 -4.35,-10.23 -4.35,-10.23"
         style="fill:#de0108;fill-opacity:1;fill-rule:evenodd"
         inkscape:connector-curvature="0" />
      <g
         class="cls-2"
         mask="url(#mask)"
         id="g16"
         style="fill:#de0108;fill-opacity:1">
        <polygon
           id="Fill-9"
           class="cls-1"
           points="27.59,27.88 30.91,27.88 30.91,15.56 27.59,15.56 "
           style="fill:#de0108;fill-opacity:1;fill-rule:evenodd" />
      </g>
      <g
         class="cls-2"
         mask="url(#mask)"
         id="g19"
         style="fill:#de0108;fill-opacity:1">
        <path
           id="Fill-11"
           class="cls-1"
           d="m 31.17,12.1 a 1.92,1.92 0 1 1 -1.92,-1.89 1.9,1.9 0 0 1 1.92,1.89"
           style="fill:#de0108;fill-opacity:1;fill-rule:evenodd"
           inkscape:connector-curvature="0" />
      </g>
      <g
         class="cls-2"
         mask="url(#mask)"
         id="g22"
         style="fill:#de0108;fill-opacity:1">
        <path
           id="Fill-12"
           class="cls-1"
           d="m 57.23,27.88 h -3.42 v -8.4 A 1.42,1.42 0 0 0 51.89,18.1 7,7 0 0 0 49.2,19.38 v 8.5 H 45.78 V 15.56 c 0,0 3,-0.92 3.26,1.17 a 7.58,7.58 0 0 1 4.3,-1.58 3.63,3.63 0 0 1 3.89,3.41 v 9.32"
           style="fill:#de0108;fill-opacity:1;fill-rule:evenodd"
           inkscape:connector-curvature="0" />
      </g>
      <g
         class="cls-2"
         mask="url(#mask)"
         id="g25"
         style="fill:#de0108;fill-opacity:1">
        <path
           id="Fill-13"
           class="cls-1"
           d="m 43.5,25.75 v -6.37 c 0,-1.43 -0.6,-4.3 -4.66,-4.28 -3.89,0 -5.34,1.63 -5.34,1.63 l 1.3,2 c 0,0 0.62,-1 3.1,-1 2.48,0 2.18,2.14 2.18,2.14 -6.84,-0.11 -7.2,2.69 -7.2,4.37 a 3.73,3.73 0 0 0 3.83,3.76 5.82,5.82 0 0 0 3.84,-1.22 c 0.1,1.07 1.34,1.12 1.34,1.12 h 2 C 43.55,27.88 43.5,25.75 43.5,25.75 Z m -3.26,-1 a 4.23,4.23 0 0 1 -2.28,0.63 c -1.4,0 -1.82,-0.89 -1.82,-1.57 0,-0.68 0.47,-1.73 4.1,-1.53 z"
           style="fill:#de0108;fill-opacity:1;fill-rule:evenodd"
           inkscape:connector-curvature="0" />
      </g>
      <g
         class="cls-2"
         mask="url(#mask)"
         id="g28"
         style="fill:#de0108;fill-opacity:1">
        <path
           id="Fill-14"
           class="cls-1"
           d="m 81,25.75 v -6.37 c 0,-1.43 -0.6,-4.3 -4.66,-4.28 -3.89,0 -5.34,1.63 -5.34,1.63 l 1.3,2 c 0,0 0.62,-1 3.1,-1 2.48,0 2.18,2.14 2.18,2.14 -6.84,-0.11 -7.2,2.69 -7.2,4.37 a 3.73,3.73 0 0 0 3.86,3.76 5.82,5.82 0 0 0 3.84,-1.22 c 0.1,1.07 1.34,1.12 1.34,1.12 h 2 C 81.08,27.88 81,25.75 81,25.75 Z m -3.27,-1 a 4.17,4.17 0 0 1 -2.27,0.63 c -1.4,0 -1.82,-0.89 -1.82,-1.57 0,-0.68 0.47,-1.73 4.09,-1.53 z"
           style="fill:#de0108;fill-opacity:1;fill-rule:evenodd"
           inkscape:connector-curvature="0" />
      </g>
      <g
         class="cls-2"
         mask="url(#mask)"
         id="g31"
         style="fill:#de0108;fill-opacity:1">
        <path
           id="Fill-15"
           class="cls-1"
           d="m 68.88,18.87 a 4.81,4.81 0 0 0 -3.31,-1.12 c -2.44,0 -3.37,2.34 -3.37,4.33 a 3.37,3.37 0 0 0 3.68,3.36 5.29,5.29 0 0 0 2.9,-1 l 0.88,2.39 a 9,9 0 0 1 -4.77,1.27 5.85,5.85 0 0 1 -6,-6.1 c 0,-4.79 3.21,-6.86 6.32,-6.83 2.77,0 3.86,1 3.86,1 l -0.24,2.7"
           style="fill:#de0108;fill-opacity:1;fill-rule:evenodd"
           inkscape:connector-curvature="0" />
      </g>
      <g
         class="cls-2"
         mask="url(#mask)"
         id="g34"
         style="fill:#de0108;fill-opacity:1">
        <path
           id="Fill-16"
           class="cls-1"
           d="M 9.17,10.77 H 6.63 L 0,27.88 h 3.47 l 1.4,-4.33 h 6 l 1.76,4.33 H 16.1 Z M 6,20.81 7.9,15.66 9.78,20.81 Z"
           style="fill:#de0108;fill-opacity:1;fill-rule:evenodd"
           inkscape:connector-curvature="0" />
      </g>
      <g
         class="cls-2"
         mask="url(#mask)"
         id="g37"
         style="fill:#de0108;fill-opacity:1">
        <path
           id="Fill-17"
           class="cls-1"
           d="m 89.69,22 h 6.55 L 93,13.88 Z M 92,11.58 h 1.88 L 100.69,28 h -2.06 l -1.8,-4.5 h -7.7 L 87.32,28 h -2.06 z"
           style="fill:#de0108;fill-opacity:1;fill-rule:evenodd"
           inkscape:connector-curvature="0" />
      </g>
      <g
         class="cls-2"
         mask="url(#mask)"
         id="g40"
         style="fill:#de0108;fill-opacity:1">
        <path
           id="Fill-18"
           class="cls-1"
           d="m 102,28 h 1.93 V 16.12 H 102 Z m 1,-16.79 a 1.3,1.3 0 1 1 -1.32,1.3 1.25,1.25 0 0 1 1.25,-1.3 z"
           style="fill:#de0108;fill-opacity:1;fill-rule:evenodd"
           inkscape:connector-curvature="0" />
      </g>
      <g
         class="cls-2"
         mask="url(#mask)"
         id="g43"
         style="fill:#de0108;fill-opacity:1">
        <path
           id="Fill-19"
           class="cls-1"
           d="m 107.08,16.12 h 1.57 l 0.24,2.25 a 3.83,3.83 0 0 1 3.69,-2.44 6.83,6.83 0 0 1 1.49,0.19 l -0.22,1.59 a 7.55,7.55 0 0 0 -1.42,-0.17 c -2,0 -3.42,1.64 -3.42,4 V 28 h -1.93 z"
           style="fill:#de0108;fill-opacity:1;fill-rule:evenodd"
           inkscape:connector-curvature="0" />
      </g>
      <g
         class="cls-2"
         mask="url(#mask)"
         id="g46"
         style="fill:#de0108;fill-opacity:1">
        <path
           id="Fill-20"
           class="cls-1"
           d="m 117.75,25.27 a 1.34,1.34 0 0 0 1.44,1.44 5.33,5.33 0 0 0 1.18,-0.17 l 0.24,1.54 a 9.16,9.16 0 0 1 -1.83,0.22 2.7,2.7 0 0 1 -3,-2.86 V 10.8 h 1.93 z"
           style="fill:#de0108;fill-opacity:1;fill-rule:evenodd"
           inkscape:connector-curvature="0" />
      </g>
      <g
         class="cls-2"
         mask="url(#mask)"
         id="g49"
         style="fill:#de0108;fill-opacity:1">
        <path
           id="Fill-21"
           class="cls-1"
           d="m 121.34,28 h 1.93 V 16.12 h -1.93 z m 1,-16.79 a 1.3,1.3 0 1 1 -1.32,1.3 1.25,1.25 0 0 1 1.3,-1.3 z"
           style="fill:#de0108;fill-opacity:1;fill-rule:evenodd"
           inkscape:connector-curvature="0" />
      </g>
      <g
         class="cls-2"
         mask="url(#mask)"
         id="g52"
         style="fill:#de0108;fill-opacity:1">
        <path
           id="Fill-22"
           class="cls-1"
           d="m 126.8,16.12 h 1.56 l 0.25,2.18 a 4.65,4.65 0 0 1 4.28,-2.47 4.29,4.29 0 0 1 4.52,4.43 V 28 h -2 v -7.45 a 3,3 0 0 0 -3.13,-3.08 3.59,3.59 0 0 0 -3.59,3.84 V 28 h -1.89 z"
           style="fill:#de0108;fill-opacity:1;fill-rule:evenodd"
           inkscape:connector-curvature="0" />
      </g>
      <g
         class="cls-2"
         mask="url(#mask)"
         id="g55"
         style="fill:#de0108;fill-opacity:1">
        <path
           id="Fill-23"
           class="cls-1"
           d="m 141,21.31 h 7.33 c -0.07,-2.35 -1.49,-4 -3.49,-4 -2,0 -3.64,1.59 -3.84,4 m 3.84,-5.48 c 3.18,0 5.38,2.47 5.38,6 a 5.54,5.54 0 0 1 0,0.71 H 141 a 4.31,4.31 0 0 0 4.43,4.26 7.67,7.67 0 0 0 3.59,-1 l 0.61,1.35 a 10,10 0 0 1 -4.4,1.15 6,6 0 0 1 -6.18,-6.24 c 0,-3.66 2.39,-6.23 5.79,-6.23"
           style="fill:#de0108;fill-opacity:1;fill-rule:evenodd"
           inkscape:connector-curvature="0" />
      </g>
      <g
         class="cls-2"
         mask="url(#mask)"
         id="g58"
         style="fill:#de0108;fill-opacity:1">
        <path
           id="Fill-24"
           class="cls-1"
           d="m 155.41,15.83 a 10.82,10.82 0 0 1 4,0.83 L 159,18.11 a 8.9,8.9 0 0 0 -3.42,-0.79 c -1.54,0 -2.54,0.74 -2.54,1.84 0,2.93 6.79,1.17 6.79,5.72 0,2 -1.78,3.42 -4.4,3.42 a 12,12 0 0 1 -4.42,-0.91 l 0.46,-1.44 a 10.31,10.31 0 0 0 3.82,0.86 c 1.59,0 2.64,-0.79 2.64,-1.93 0,-3 -6.82,-1.28 -6.82,-5.72 0,-1.93 1.78,-3.33 4.32,-3.33"
           style="fill:#de0108;fill-opacity:1;fill-rule:evenodd"
           inkscape:connector-curvature="0" />
      </g>
    </g>
  </g>
  <g
     transform="matrix(3.2468418,0,0,3.2468418,68.947852,285.11331)"
     style="fill:none;fill-rule:evenodd;stroke:none;stroke-width:1"
     id="VD-Miltilanguage"
     inkscape:export-filename="C:\Users\suitedoalex\sites\avianca-logo-5.png"
     inkscape:export-xdpi="68.334915"
     inkscape:export-ydpi="68.334915">
    <g
       style="fill:#de0108"
       id="01.1-004A-TAB_H"
       transform="translate(-16,-16)">
      <g
         id="Header">
        <g
           id="Logo"
           transform="translate(16,16)">
          <g
             id="logo-avianca-vermelho">
            <path
               inkscape:connector-curvature="0"
               d="m 158.97806,31.260606 c -1.52813,-1.481455 -3.89396,-4.082182 -3.89396,-4.082182 0,0 8.73185,0.14497 10.54519,4.417697 -1.31139,-0.481109 -6.56925,-0.337781 -6.65028,-0.335541 3.9026,3.639784 8.57133,6.726814 14.11882,8.623299 0,0 -7.4378,0.60606 -11.92507,-1.515152 -4.48726,-2.121212 -9.15894,-5.696969 -12.048,-5.939394 -2.88906,-0.242424 -4.57824,-0.4 -5.34784,-1.168727 z M 141.25668,0.00509091 c 0,0 3.53498,15.10327309 13.82742,27.17333309 0,0 -11.94621,-0.374303 -16.12957,-8.370424 -3.84479,-7.348364 -1.14014,-14.8635152 2.30215,-18.80290909 z M 21.719106,12.611152 h 5.327429 l 4.835675,12.525333 4.671674,-12.525333 h 5.491185 L 33.654496,32.166788 H 31.88221 c -0.840164,0 -2.049144,-0.08097 -3.278532,-3.313212 C 27.37429,25.621333 21.719106,12.611152 21.719106,12.611152 Z M 43.684334,32.166788 V 12.611152 h 5.245307 V 32.166788 Z M 49.339519,7.1161212 c 0,1.651394 -1.357736,2.9900608 -3.032654,2.9900608 -1.674672,0 -3.032409,-1.3386668 -3.032409,-2.9900608 0,-1.6511515 1.357737,-2.9898182 3.032409,-2.9898182 1.674918,0 3.032654,1.3386667 3.032654,2.9898182 z M 90.565078,32.166788 H 85.155525 V 18.833454 c 0,0 0,-2.828363 -3.032409,-2.181818 -2.466889,0.525818 -4.261796,2.020122 -4.261796,2.020122 v 13.49503 H 72.452013 V 12.611152 c 0,0 4.753551,-1.454546 5.163429,1.858666 0,0 3.032409,-2.505212 6.80245,-2.505212 3.770287,0 6.147186,2.666909 6.147186,5.414303 z M 63.682297,27.197091 v -3.919273 c -5.737062,-0.323394 -6.474695,1.171637 -6.474695,2.424243 0,1.090909 0.65551,2.505212 2.868408,2.505212 2.212898,0 3.606287,-1.010182 3.606287,-1.010182 z m 5.163429,1.596121 c 0,0 0.08188,3.373576 0.573633,3.373576 h -3.114286 c 0,0 -1.967021,-0.08073 -2.131021,-1.777697 0,0 -2.048898,1.939394 -6.065063,1.939394 -4.015918,0 -6.064816,-3.232485 -6.064816,-5.899152 0,-2.666666 0.573632,-7.11103 11.392246,-6.949575 0,0 0.491755,-3.39394 -3.442286,-3.39394 -3.934042,0 -4.917552,1.616243 -4.917552,1.616243 l -2.048898,-3.232243 c 0,0 2.294776,-2.547394 8.441715,-2.585939 6.43388,-0.04049 7.376328,4.525333 7.376328,6.787879 z m 54.213064,-1.596121 v -3.919273 c -5.73731,-0.323394 -6.4747,1.171637 -6.4747,2.424243 0,1.090909 0.65576,2.505212 2.86865,2.505212 2.2129,0 3.60605,-1.010182 3.60605,-1.010182 z m 5.16342,1.596121 c 0,0 0.0821,3.373576 0.57388,3.373576 h -3.11477 c 0,0 -1.96702,-0.08073 -2.13078,-1.777697 0,0 -2.0489,1.939394 -6.06482,1.939394 -4.01616,0 -6.0653,-3.232485 -6.0653,-5.899152 0,-2.666666 0.57387,-7.11103 11.39249,-6.949575 0,0 0.49175,-3.39394 -3.44229,-3.39394 -3.93404,0 -4.91755,1.616243 -4.91755,1.616243 l -2.04914,-3.232243 c 0,0 2.29502,-2.547394 8.44196,-2.585939 6.43388,-0.04049 7.37632,4.525333 7.37632,6.787879 z M 109.00565,17.863758 c 0,0 -1.7622,-1.77794 -5.2453,-1.77794 -3.85217,0 -5.327435,3.717333 -5.327435,6.868849 0,3.151515 2.376895,5.333333 5.819185,5.333333 2.58172,0 4.5898,-1.535273 4.5898,-1.535273 l 1.39314,3.797818 c 0,0 -2.90947,2.020364 -7.54008,2.020364 -3.196412,0 -9.425475,-2.100848 -9.425475,-9.69697 0,-7.596121 5.081798,-10.873697 9.999105,-10.828363 4.38473,0.04024 6.10588,1.535273 6.10588,1.535273 z M 9.5545574,20.952242 H 15.494222 L 12.524267,12.777454 Z M 14.532349,5.0150303 25.514964,32.166788 h -5.49143 L 17.237003,25.298182 H 7.7296539 L 5.5170015,32.166788 H 0.02557127 L 10.516431,5.0150303 Z"
               id="Combined-Shape" />
          </g>
        </g>
      </g>
    </g>
  </g>
  <g
     transform="translate(-25.067689,411.36837)"
     id="TEMP_Logo-6"
     data-name="TEMP Logo"
     style="fill:#ffff00" />
</svg>
