<?xml version="1.0" encoding="utf-8"?>
<!-- Generator: Adobe Illustrator 24.2.1, SVG Export Plug-In . SVG Version: 6.00 Build 0)  -->
<svg version="1.1" id="katman_1" xmlns="http://www.w3.org/2000/svg" xmlns:xlink="http://www.w3.org/1999/xlink" x="0px" y="0px"
	 viewBox="0 0 3840 2160" style="enable-background:new 0 0 3840 2160;" xml:space="preserve">
<path d="M3199.9,836.2h125.1l-26.8,125.1h-125.1l-41.4,194.2c-9.5,44,0,50.1,50.9,50.1c23.3,0,42.3-0.9,67.3-1.7l-25,117.4
	c-39.7,5.2-89.8,8.6-145.9,8.6c-123.4,0-167.4-30.2-145-134.6l50.1-234.7h-99.2l25.9-124.3h99.2l32.8-153.6h189L3199.9,836.2z
	 M2551.8,1319.5h189l102.7-483.3h-189L2551.8,1319.5z M2666.6,781h189l24.2-113.9h-189L2666.6,781z M2153.9,836.2l-102.7,483.3
	h183.8l102.7-483.3H2153.9z M2591.5,815.5c-12.1-0.9-24.2-1.7-35.4-1.7c-84.6,0-219.2,82.9-254.6,231.3l-9.5,33.7h3.5
	c26.8-63.9,94.1-98.4,184.7-98.4c24.2,0,52.6,3.5,74.2,8.6L2591.5,815.5z M1886.4,836.2l-102.7,483.3h189l102.7-483.3H1886.4z
	 M2111.7,666.2h-189l-24.2,113.9h189L2111.7,666.2z M1772.5,1085.6c-29.3,139.8-157.1,252.9-334.9,252.9
	c-83.7,0-142.4-27.6-166.6-63h-1.7l-46.6,218.3h-189l139.8-658.5h183.8l-13.8,63.9h1.7c50.9-49.2,123.4-76.8,200.2-76.8
	C1716.4,823.3,1807.9,918.2,1772.5,1085.6L1772.5,1085.6z M1472.2,955.3c-88.9,0-145,48.3-160.5,123.4
	c-16.4,75.1,19.8,122.5,108.7,122.5c86.3,0,143.3-43.2,159.7-122.5C1596.4,998.4,1558.5,955.3,1472.2,955.3z M888.8,1022.6
	l-159.7-18.1c-46.6-5.2-57-19-53.5-33.7c6.9-32.8,41.4-45.7,96.7-45.7c24.2,0,48.3,2.6,65.6,11.2c17.3,6.9,27.6,20.7,25,40.6h212.3
	c19-137.2-138.9-160.5-267.5-160.5c-181.2,0-302.1,41.4-329.7,172.6c-17.3,82,30.2,121.7,138.1,134.6l164.8,20.7
	c45.7,5.2,63,12.9,57,38c-7.8,34.5-53.5,43.2-95.8,43.2c-41.4,0-65.6-5.2-80.3-14.7c-14.7-9.5-19-23.3-18.1-41.4H422.7
	c-26.8,146.7,149.3,170,283.1,170c201.1,0,321-53.5,345.2-167.4C1071.7,1077,1015.6,1036.4,888.8,1022.6L888.8,1022.6z
	 M3391.5,878.5l8.6,15.5h-10.4l-6-12.9h-6.9V894h-10.4v-39.7h16.4c4.3,0,7.8,0.9,11.2,3.5c3.5,1.7,4.3,5.2,4.3,10.4
	c0,2.6-0.9,4.3-1.7,6S3394.1,877.6,3391.5,878.5L3391.5,878.5z M3388.1,868.1c0-1.7-0.9-3.5-1.7-4.3c-0.9-0.9-3.5-1.7-5.2-1.7h-4.3
	v12.1h4.3c2.6,0,4.3-0.9,5.2-1.7C3387.2,871.6,3388.1,869.9,3388.1,868.1z M3420,875c0,6-0.9,11.2-3.5,15.5
	c-1.7,4.3-4.3,8.6-7.8,12.9c-3.5,3.5-7.8,6-12.1,7.8c-4.3,1.7-9.5,2.6-14.7,2.6s-10.4-0.9-14.7-2.6c-4.3-1.7-8.6-4.3-12.1-7.8
	c-3.5-3.5-6-7.8-7.8-12.9c-1.7-4.3-3.5-10.4-3.5-15.5c0-6,0.9-11.2,3.5-16.4c1.7-5.2,4.3-9.5,7.8-12.9c3.5-3.5,7.8-6,12.1-7.8
	c4.3-1.7,9.5-2.6,14.7-2.6s10.4,0.9,14.7,2.6c4.3,1.7,8.6,4.3,12.1,7.8c3.5,3.5,6,7.8,7.8,12.9C3419.1,863.8,3420,869,3420,875z
	 M3410.5,875c0-4.3-0.9-8.6-2.6-12.9c-1.7-4.3-3.5-6.9-6-10.4c-2.6-2.6-5.2-5.2-9.5-6c-3.5-1.7-7.8-2.6-11.2-2.6
	c-4.3,0-7.8,0.9-12.1,2.6c-3.5,1.7-6.9,3.5-9.5,6c-2.6,2.6-4.3,6-6,10.4c-1.7,4.3-2.6,7.8-2.6,12.9c0,4.3,0.9,8.6,2.6,12.9
	c1.7,3.5,3.5,6.9,6,9.5c2.6,2.6,5.2,4.3,9.5,6c3.5,1.7,7.8,2.6,12.1,2.6c4.3,0,7.8-0.9,11.2-2.6c3.5-1.7,6.9-3.5,9.5-6
	c2.6-2.6,4.3-6,6-9.5C3409.6,883.7,3410.5,879.3,3410.5,875z"/>
</svg>
